<svg xmlns="http://www.w3.org/2000/svg" viewBox="0 0 20 20">
    <g id="Layer_2">
        <g id="Icons">
            <path class="cls-1" fill="#030835"
                d="M10,1.5c4.61,0,8.42,3.44,8.5,7.68S14.9,17,10.31,17.12H10a9.11,9.11,0,0,1-2.66-.39l-.66-.19-.58.36-.84.53-.08-1,0-.67-.54-.41A7.56,7.56,0,0,1,1.5,9.23C1.55,5,5.33,1.54,9.92,1.5H10M10,0H9.9C4.49.05.06,4.16,0,9.21a9.08,9.08,0,0,0,3.68,7.32L3.94,20s0,0,0,0H4l2.9-1.82a10.91,10.91,0,0,0,3.1.45h.36c5.42-.18,9.73-4.42,9.64-9.47S15.46,0,10,0Z" />
            <path class="cls-2" d="M5.58,11.64s3.75,4.42,8.84,0" fill="none" stroke="#030835"
                stroke-linecap="round" stroke-linejoin="round" />
            <ellipse class="cls-1" cx="7.67" cy="7.02" rx="0.99" ry="1.4" fill="#030835" />
            <ellipse class="cls-1" cx="12.33" cy="7.02" rx="0.99" ry="1.4" fill="#030835"/>
        </g>
    </g>
</svg>