<svg xmlns="http://www.w3.org/2000/svg" viewBox="0 0 20 20">
    <g id="Layer_2">
        <g id="Icons">
            <path class="cls-1" fill="#030835"
                d="M9.9,0C4.49.05.06,4.16,0,9.21a9.08,9.08,0,0,0,3.68,7.32L3.94,20S4,20,4,20l2.9-1.82a10.65,10.65,0,0,0,3.46.45c5.42-.18,9.73-4.42,9.64-9.47S15.41,0,9.9,0Zm2.43,5.61c.54,0,1,.63,1,1.41s-.45,1.4-1,1.4-1-.63-1-1.4S11.78,5.61,12.33,5.61Zm-4.66,0c.55,0,1,.63,1,1.41s-.45,1.4-1,1.4-1-.63-1-1.4S7.13,5.61,7.67,5.61ZM14.75,12A7.51,7.51,0,0,1,9.87,14.1H9.43A6.6,6.6,0,0,1,5.2,12,.5.5,0,1,1,6,11.32a5.74,5.74,0,0,0,3.56,1.77,6.29,6.29,0,0,0,4.57-1.83.5.5,0,1,1,.66.76Z" />
        </g>
    </g>
</svg>