<svg id="Layer_1" xmlns="http://www.w3.org/2000/svg" viewBox="0 0 24 24">
    <title>Home</title>
    <rect class="cls-1" width="24" height="24" fill="none" />
    <g id="Home">
        <path class="cls-2"
            d="M180.50116,185.32077l-5.68-5.26a3.98531,3.98531,0,0,0-5.43994,0l-5.68006,5.26a5.01836,5.01836,0,0,0-1.6,3.67005v5.00995a5.00181,5.00181,0,0,0,5,5h10a5.00181,5.00181,0,0,0,5-5v-5.00995A5.01834,5.01834,0,0,0,180.50116,185.32077Zm-5.6792,7.4303H169.382a.75.75,0,0,1,0-1.5H174.822a.75.75,0,0,1,0,1.5Z"
            transform="translate(-160.10114 -176.99452)" fill="#030835" />
    </g>
</svg>